HIERARCHY
ROOT Hips
{
	OFFSET 0.00000 0.00000 0.00000
	CHANNELS 6 Xposition Yposition Zposition Zrotation Yrotation Xrotation 
	JOINT LHipJoint
	{
		OFFSET 0 0 0
		CHANNELS 3 Zrotation Yrotation Xrotation
		JOINT LeftUpLeg
		{
			OFFSET 1.28858 -1.83292 1.03970
			CHANNELS 3 Zrotation Yrotation Xrotation
			JOINT LeftLeg
			{
				OFFSET 2.47846 -6.80952 0.00000
				CHANNELS 3 Zrotation Yrotation Xrotation
				JOINT LeftFoot
				{
					OFFSET 2.75274 -7.56311 0.00000
					CHANNELS 3 Zrotation Yrotation Xrotation
					JOINT LeftToeBase
					{
						OFFSET 0.12848 -0.35301 1.68223
						CHANNELS 3 Zrotation Yrotation Xrotation
						End Site
						{
							OFFSET 0.00000 -0.00000 0.87311
						}
					}
				}
			}
		}
	}
	JOINT RHipJoint
	{
		OFFSET 0 0 0
		CHANNELS 3 Zrotation Yrotation Xrotation
		JOINT RightUpLeg
		{
			OFFSET -1.31183 -1.83292 1.03970
			CHANNELS 3 Zrotation Yrotation Xrotation
			JOINT RightLeg
			{
				OFFSET -2.44740 -6.72417 0.00000
				CHANNELS 3 Zrotation Yrotation Xrotation
				JOINT RightFoot
				{
					OFFSET -2.67343 -7.34519 0.00000
					CHANNELS 3 Zrotation Yrotation Xrotation
					JOINT RightToeBase
					{
						OFFSET -0.16914 -0.46471 1.77626
						CHANNELS 3 Zrotation Yrotation Xrotation
						End Site
						{
							OFFSET -0.00000 -0.00000 0.92777
						}
					}
				}
			}
		}
	}
	JOINT LowerBack
	{
		OFFSET 0 0 0
		CHANNELS 3 Zrotation Yrotation Xrotation
		JOINT Spine
		{
			OFFSET 0.01249 2.14252 0.03842
			CHANNELS 3 Zrotation Yrotation Xrotation
			JOINT Spine1
			{
				OFFSET -0.02957 2.14199 -0.03751
				CHANNELS 3 Zrotation Yrotation Xrotation
				JOINT Neck
				{
					OFFSET 0 0 0
					CHANNELS 3 Zrotation Yrotation Xrotation
					JOINT Neck1
					{
						OFFSET -0.01678 1.65709 -0.05476
						CHANNELS 3 Zrotation Yrotation Xrotation
						JOINT Head
						{
							OFFSET 0.07912 1.58331 -0.11843
							CHANNELS 3 Zrotation Yrotation Xrotation
							End Site
							{
								OFFSET 0.03298 1.73940 -0.04271
							}
						}
					}
				}
				JOINT LeftShoulder
				{
					OFFSET 0 0 0
					CHANNELS 3 Zrotation Yrotation Xrotation
					JOINT LeftArm
					{
						OFFSET 3.39556 1.16496 0.08673
						CHANNELS 3 Zrotation Yrotation Xrotation
						JOINT LeftForeArm
						{
							OFFSET 5.23910 -0.00000 -0.00000
							CHANNELS 3 Zrotation Yrotation Xrotation
							JOINT LeftHand
							{
								OFFSET 3.31467 -0.00000 0.00000
								CHANNELS 3 Zrotation Yrotation Xrotation
								JOINT LeftFingerBase
								{
									OFFSET 0 0 0
									CHANNELS 3 Zrotation Yrotation Xrotation
									JOINT LeftHandIndex1
									{
										OFFSET 0.96590 -0.00000 0.00000
										CHANNELS 3 Zrotation Yrotation Xrotation
										End Site
										{
											OFFSET 0.77873 -0.00000 0.00000
										}
									}
								}
								JOINT LThumb
								{
									OFFSET 0 0 0
									CHANNELS 3 Zrotation Yrotation Xrotation
									End Site
									{
										OFFSET 0.79062 -0.00000 0.79062
									}
								}
							}
						}
					}
				}
				JOINT RightShoulder
				{
					OFFSET 0 0 0
					CHANNELS 3 Zrotation Yrotation Xrotation
					JOINT RightArm
					{
						OFFSET -3.27193 1.31331 0.33940
						CHANNELS 3 Zrotation Yrotation Xrotation
						JOINT RightForeArm
						{
							OFFSET -5.30252 -0.00000 0.00000
							CHANNELS 3 Zrotation Yrotation Xrotation
							JOINT RightHand
							{
								OFFSET -3.67875 -0.00000 0.00000
								CHANNELS 3 Zrotation Yrotation Xrotation
								JOINT RightFingerBase
								{
									OFFSET 0 0 0
									CHANNELS 3 Zrotation Yrotation Xrotation
									JOINT RightHandIndex1
									{
										OFFSET -0.59481 -0.00000 0.00000
										CHANNELS 3 Zrotation Yrotation Xrotation
										End Site
										{
											OFFSET -0.47955 -0.00000 0.00000
										}
									}
								}
								JOINT RThumb
								{
									OFFSET 0 0 0
									CHANNELS 3 Zrotation Yrotation Xrotation
									End Site
									{
										OFFSET -0.48687 -0.00000 0.48687
									}
								}
							}
						}
					}
				}
			}
		}
	}
}
MOTION
Frames: 15
Frame Time: .0083333
10.8368 17.1357 33.5908 0 0 0 0 0 0 -21 0 0 0 0 0 0 0 0 0 0 0 0 0 0 21 0 0 0 0 0 0 0 0 0 0 0 0 0 0 0 0 0 0 0 0 0 0 -16 0 0 21 0 0 11 0 0 0 -8 0 0 0 0 0 0 0 0 0 0 0 0 0 0 0 0 0 0 0 0 8 0 0 0 0 0 0 0 0 0 0 0 0 0 0 0 0 0
10.8368 17.1357 33.5908 -175.9950 -4.0882 -177.1280 0.0000 0.0000 0.0000 7.7568 -15.0136 12.8720 0.1042 -2.0814 -5.7307 4.3592 -18.8503 -38.3622 8.4192 16.4191 54.0589 0.0000 0.0000 0.0000 10.3044 23.1015 23.1806 -0.0865 1.8968 -5.2206 -9.6723 -15.0312 -63.8241 -3.5145 -11.4847 33.9325 0.2632 -2.1423 -7.3828 0.6137 -3.1956 -4.1418 0.2560 -1.7337 -0.1179 -3.9164 0.1716 -3.4325 12.4698 -0.1400 13.5142 4.5551 0.8252 4.5817 -0.0000 0.0000 0.0000 -86.6718 9.5700 21.4180 4.5828 -7.8791 -0.3158 -0.0000 -0.0000 0.1547 22.8763 -10.8865 -4.5561 -7.1250 0.0000 -0.0000 -2.9629 18.1983 1.8919 -0.0000 0.0000 0.0000 -47.9450 37.6693 -79.8387 -11.3379 18.8043 -1.8834 0.0000 0.0000 16.8864 -25.5323 -37.5183 16.2201 7.1250 -0.0000 -0.0000 13.1954 -69.9684 -7.9242
10.8347 17.1406 33.5826 -175.3260 -4.1274 -177.1370 0.0000 0.0000 0.0000 8.9171 -14.1855 12.4027 0.1033 -2.0726 -5.7062 4.1019 -19.1221 -37.2640 8.5480 16.5079 54.5135 0.0000 0.0000 0.0000 11.2221 23.3866 23.1222 -0.0775 1.7962 -4.9428 -9.8142 -14.8476 -64.1688 -3.4763 -11.4288 33.7401 1.0450 -2.1147 -7.5219 0.8748 -3.2320 -4.2563 0.0826 -1.7715 -0.1859 -3.0675 0.1178 -2.0183 11.1518 -0.1059 12.1202 3.9520 0.6874 3.9236 -0.0000 0.0000 0.0000 -86.6537 9.8742 21.3841 4.8288 -8.2954 -0.3504 -0.0000 0.0000 -2.1933 20.9475 -11.7090 -4.4423 -7.1250 0.0000 -0.0000 -4.3448 17.4894 2.8464 -0.0000 0.0000 0.0000 -49.3394 37.6491 -81.6249 -11.3159 18.7708 -1.8763 0.0000 0.0000 16.8594 -25.2567 -37.2286 15.9298 7.1250 -0.0000 -0.0000 13.2243 -69.6013 -7.8335
10.8320 17.1422 33.5732 -174.8670 -4.1973 -177.0950 0.0000 0.0000 0.0000 9.7626 -13.6177 12.0044 0.1019 -2.0589 -5.6684 3.9159 -19.4203 -36.4751 8.6049 16.5466 54.7134 0.0000 0.0000 0.0000 11.8124 23.6051 23.0319 -0.0730 1.7426 -4.7950 -9.8314 -14.9605 -64.2539 -3.5365 -11.5166 34.0426 1.5798 -2.1447 -7.7092 1.0388 -3.3350 -4.3927 -0.0589 -1.8420 -0.2441 -1.7889 0.0397 -0.5831 9.3008 -0.0444 10.4886 3.4754 0.5480 3.5587 0.0000 -0.0000 0.0000 -86.6195 9.9561 21.2453 4.9369 -8.4780 -0.3661 -0.0000 0.0000 -4.7401 19.0013 -11.8035 -4.0292 -7.1250 0.0000 -0.0000 -5.7074 17.5544 3.7389 0.0000 -0.0000 0.0000 -50.6617 37.7226 -83.4090 -11.2791 18.7148 -1.8645 0.0000 0.0000 16.8310 -25.5057 -37.4058 16.1625 7.1250 -0.0000 -0.0000 13.0983 -69.8517 -7.8312
10.8269 17.1439 33.5638 -174.5770 -4.2831 -177.0520 0.0000 0.0000 0.0000 10.3256 -13.1544 11.6679 0.0989 -2.0283 -5.5840 3.7960 -19.3006 -35.9146 8.6600 16.5839 54.9068 0.0000 0.0000 0.0000 12.1074 23.6563 22.8755 -0.0681 1.6840 -4.6333 -9.7576 -15.1585 -64.1086 -3.6171 -11.6327 34.4446 2.0140 -2.0413 -7.9431 1.1453 -3.2537 -4.5029 -0.1930 -1.8181 -0.2457 -0.4528 -0.1752 0.5818 7.3935 -0.2251 9.4338 2.5102 0.3542 2.9497 0.0000 -0.0000 0.0000 -86.5775 9.7949 21.5372 4.8265 -8.2915 -0.3500 -0.0000 0.0000 -6.3687 17.3510 -11.8912 -3.6836 -7.1250 0.0000 -0.0000 -6.8607 17.5930 4.4987 0.0000 -0.0000 0.0000 -51.6781 37.4462 -84.4219 -11.2814 18.7183 -1.8652 0.0000 0.0000 16.7727 -25.9695 -37.5389 16.5295 7.1250 -0.0000 -0.0000 12.6303 -70.1296 -7.6264
10.8170 17.1572 33.5478 -174.0200 -3.9193 -177.2350 0.0000 0.0000 0.0000 10.8069 -13.0688 12.2405 0.1072 -2.1116 -5.8142 3.8952 -19.3686 -36.3743 8.6788 16.5965 54.9724 0.0000 0.0000 0.0000 12.5929 23.5781 22.5987 -0.0591 1.5691 -4.3163 -9.4622 -15.3279 -63.3224 -3.5616 -11.5530 34.1686 2.9684 -1.5112 -8.1023 1.0174 -2.6193 -4.4554 -0.8180 -1.5180 -0.1468 1.1180 -0.6564 1.4572 5.8746 -0.7645 8.4397 1.6860 0.0314 2.4447 -0.0000 -0.0000 0.0000 -85.9144 9.5466 22.6049 4.6561 -8.0034 -0.3259 -0.0000 0.0000 -6.9231 16.2008 -12.2309 -3.5222 -7.1250 0.0000 -0.0000 -7.6627 17.3290 5.0784 -0.0000 -0.0000 0.0000 -51.7551 36.0087 -82.7604 -11.3719 18.8561 -1.8944 0.0000 0.0000 14.8950 -26.1400 -37.7900 16.7373 7.1250 -0.0000 -0.0000 12.6981 -70.4269 -7.7516
10.7971 17.1901 33.5112 -172.8950 -2.7482 -177.8130 0.0000 0.0000 0.0000 11.1406 -13.8261 14.5569 0.1403 -2.4140 -6.6512 4.4613 -20.0604 -38.9617 8.5772 16.5278 54.6162 0.0000 0.0000 0.0000 13.3861 23.0164 21.9511 -0.0436 1.3470 -3.7041 -8.5741 -15.7861 -60.9028 -3.3048 -11.1729 32.8651 4.9925 -0.2488 -8.1348 0.4216 -1.0456 -4.1202 -2.4527 -0.7412 0.2186 5.0466 -1.3108 2.9223 2.8203 -2.1903 5.7634 0.0277 -1.1303 1.2727 -0.0000 0.0000 0.0000 -83.9637 8.9770 24.9606 4.6482 -7.9900 -0.3248 -0.0000 0.0000 -8.0405 14.2807 -12.0473 -3.0411 -7.1250 0.0000 -0.0000 -8.9983 17.6513 5.9199 -0.0000 0.0000 0.0000 -49.8675 32.1545 -74.9180 -11.9165 19.6793 -2.0741 0.0000 0.0000 8.1244 -26.1981 -39.0535 17.2232 7.1250 -0.0000 -0.0000 14.2516 -71.6516 -9.0964
10.8040 17.1781 33.5155 -173.0400 -3.3540 -177.3630 0.0000 0.0000 0.0000 11.5172 -13.5651 13.3893 0.1289 -2.3143 -6.3750 4.3201 -19.6798 -38.2995 8.5824 16.5313 54.6343 0.0000 0.0000 0.0000 12.9320 22.6596 21.2266 -0.0377 1.2527 -3.4444 -8.5185 -15.7256 -60.7150 -3.3382 -11.2234 33.0369 4.8712 -0.2791 -8.5259 0.3364 -1.1274 -4.3895 -2.4830 -0.8030 0.1500 5.1173 -1.3607 2.9526 2.9975 -2.2907 5.9189 0.0697 -1.1821 1.3178 -0.0000 -0.0000 0.0000 -83.5179 8.9541 25.4340 4.7464 -8.1561 -0.3386 -0.0000 0.0000 -9.4967 11.8282 -11.4259 -2.3757 -7.1250 0.0000 -0.0000 -10.7196 18.4261 6.9036 -0.0000 -0.0000 0.0000 -50.4360 31.9081 -75.5192 -11.9348 19.7067 -2.0802 0.0000 0.0000 8.4221 -26.5295 -39.1670 17.5002 7.1250 -0.0000 -0.0000 13.9460 -71.8714 -8.9660
10.7314 17.1613 33.3971 -176.3140 -2.5938 -178.6140 0.0000 0.0000 0.0000 4.4383 -16.9235 19.0307 0.2100 -2.9507 -8.1416 5.5969 -21.3325 -43.7888 8.5473 16.5074 54.5109 0.0000 0.0000 0.0000 7.4592 19.0792 21.4504 -0.0613 1.5977 -4.3950 -6.5978 -17.1114 -55.3911 -2.7599 -10.2959 29.9402 2.9694 0.1307 -8.8960 -1.1096 -0.3442 -3.5902 -2.8540 -0.3256 1.2455 5.2847 -1.6188 2.6559 3.3188 -2.7078 6.1502 0.1351 -1.3841 1.4412 0.0000 0.0000 0.0000 -82.5730 8.2504 26.3557 4.7079 -8.0910 -0.3332 -0.0000 0.0000 -12.0068 8.1796 -10.6411 -1.5204 -7.1250 0.0000 -0.0000 -13.2992 19.3746 8.3608 0.0000 0.0000 0.0000 -50.4427 31.1352 -75.8971 -11.9688 19.7578 -2.0917 0.0000 0.0000 8.6293 -27.2531 -39.1125 18.0016 7.1250 -0.0000 -0.0000 12.8453 -72.0659 -8.3058
10.7128 17.1533 33.3599 -177.5130 -2.7631 -178.9380 0.0000 0.0000 0.0000 2.1901 -17.7190 20.3080 0.2252 -3.0544 -8.4303 5.8210 -21.8375 -44.7267 8.5930 16.5386 54.6717 0.0000 0.0000 0.0000 5.3841 17.5045 21.2597 -0.0644 1.6370 -4.5035 -5.8941 -17.5593 -53.3122 -2.6124 -10.0394 29.1045 1.9391 0.0538 -8.9737 -1.4013 -0.3664 -3.6047 -2.5778 -0.3347 1.2769 5.5563 -1.8163 2.8260 2.7207 -2.9529 6.4954 -0.0956 -1.5052 1.5078 0.0000 0.0000 0.0000 -82.4867 8.5671 26.5024 4.6779 -8.0401 -0.3289 -0.0000 0.0000 -11.1393 7.4043 -10.6923 -1.3812 -7.1250 0.0000 -0.0000 -13.8349 19.3537 8.7245 0.0000 0.0000 0.0000 -51.2375 31.1100 -76.3716 -11.9817 19.7772 -2.0961 0.0000 0.0000 8.5543 -27.5144 -39.0867 18.1810 7.1250 -0.0000 -0.0000 12.4354 -72.1305 -8.0559
10.7090 17.1537 33.3423 -177.4910 -2.9430 -178.9680 0.0000 0.0000 0.0000 2.0757 -18.0662 20.5630 0.2295 -3.0836 -8.5116 5.8244 -22.2277 -44.7882 8.6790 16.5967 54.9732 0.0000 0.0000 0.0000 5.3265 17.2048 21.1385 -0.0590 1.5671 -4.3107 -5.7424 -17.6388 -52.8454 -2.6289 -10.0686 29.1992 2.0166 0.0244 -9.2120 -1.3689 -0.4350 -3.7352 -2.5964 -0.3788 1.2687 5.3452 -1.5736 2.7639 2.9777 -2.7428 7.2881 0.0117 -1.4010 1.7827 0.0000 -0.0000 0.0000 -82.2934 8.8569 26.5979 4.6551 -8.0016 -0.3258 -0.0000 0.0000 -9.7114 6.5223 -10.8034 -1.2277 -7.1250 0.0000 -0.0000 -14.4384 19.2766 9.1558 0.0000 -0.0000 0.0000 -51.9879 31.1892 -77.2684 -11.9911 19.7914 -2.0993 0.0000 0.0000 8.8198 -27.6595 -39.1823 18.3211 7.1250 -0.0000 -0.0000 12.3566 -72.2715 -8.0424
10.7040 17.1537 33.3197 -177.5220 -3.5653 -178.8580 0.0000 0.0000 0.0000 2.2018 -18.3021 20.2364 0.2270 -3.0669 -8.4651 5.6838 -22.2657 -44.2470 8.7280 16.6294 55.1445 0.0000 0.0000 0.0000 5.4270 17.0602 21.3259 -0.0574 1.5464 -4.2535 -5.8380 -17.5585 -53.1239 -2.6193 -10.0516 29.1441 2.0172 -0.1303 -9.6740 -1.3841 -0.6683 -3.8246 -2.6422 -0.5030 1.4158 5.0877 -1.5536 2.9460 3.3007 -2.7575 7.4132 0.1559 -1.4185 1.7996 -0.0000 0.0000 0.0000 -82.0741 8.9905 26.7425 4.6409 -7.9775 -0.3238 -0.0000 0.0000 -8.5987 5.8234 -10.7401 -1.0888 -7.1250 0.0000 -0.0000 -14.9263 19.3614 9.4578 -0.0000 0.0000 0.0000 -52.6328 31.3160 -78.4523 -12.0204 19.8352 -2.1092 0.0000 0.0000 9.2881 -28.1565 -39.2135 18.6943 7.1250 -0.0000 -0.0000 11.6753 -72.4722 -7.6465
10.7002 17.1600 33.3110 -177.6230 -3.0396 -179.0070 0.0000 0.0000 0.0000 1.5022 -18.6587 21.1896 0.2393 -3.1481 -8.6914 5.9362 -22.9525 -45.3128 8.7365 16.6351 55.1742 0.0000 0.0000 0.0000 4.7382 16.4121 20.4302 -0.0413 1.3120 -3.6077 -5.2060 -17.7665 -51.0745 -2.3074 -9.4789 27.3052 1.9636 0.0770 -9.6374 -1.3588 -0.3936 -3.8851 -2.5557 -0.3694 1.3502 5.0455 -1.5826 2.9312 3.1989 -2.8221 7.7111 0.1284 -1.4515 1.8973 -0.0000 -0.0000 0.0000 -81.8910 9.2016 26.9043 4.7664 -8.1899 -0.3414 -0.0000 0.0000 -8.0513 5.3361 -10.6145 -0.9857 -7.1250 0.0000 -0.0000 -15.2729 19.4983 9.6453 -0.0000 -0.0000 0.0000 -53.1913 31.2891 -78.8025 -12.1186 19.9823 -2.1426 0.0000 0.0000 8.9648 -28.3360 -39.2471 18.8380 7.1250 -0.0000 -0.0000 11.4568 -72.5662 -7.5257
10.6963 17.1592 33.2920 -177.6740 -3.2538 -179.1010 0.0000 0.0000 0.0000 1.3376 -18.7834 21.3862 0.2415 -3.1628 -8.7322 5.8476 -23.4173 -45.0381 8.7862 16.6682 55.3479 0.0000 0.0000 0.0000 4.5877 16.0315 20.3779 -0.0382 1.2621 -3.4703 -4.9166 -18.1690 -50.2898 -2.1178 -9.1072 26.1311 1.8432 0.0395 -9.8217 -1.3053 -0.4442 -3.9219 -2.4395 -0.3962 1.4118 5.0194 -1.6246 3.0997 3.0114 -2.8790 7.9119 0.0744 -1.4860 1.9302 -0.0000 0.0000 0.0000 -81.6550 9.6286 27.0953 5.0810 -8.7211 -0.3877 -0.0000 0.0000 -7.6270 4.7809 -10.5702 -0.8790 -7.1250 0.0000 -0.0000 -15.6597 19.5572 9.8872 -0.0000 0.0000 0.0000 -53.7115 31.1328 -78.6055 -12.2273 20.1446 -2.1799 0.0000 0.0000 8.2102 -28.5749 -39.3716 19.0599 7.1250 -0.0000 -0.0000 11.2740 -72.7686 -7.4545
10.6944 17.1571 33.2738 -177.8480 -3.3984 -179.1590 0.0000 0.0000 0.0000 0.9441 -19.0360 21.6949 0.2464 -3.1942 -8.8199 5.8838 -23.6035 -45.2033 8.8263 16.6946 55.4874 0.0000 0.0000 0.0000 4.3364 15.8823 20.4134 -0.0395 1.2830 -3.5279 -4.6085 -18.6184 -49.4607 -1.9759 -8.8156 25.2202 1.6453 0.0551 -10.0182 -1.3506 -0.4162 -3.9557 -2.3739 -0.3845 1.4871 5.2034 -1.7632 3.3753 2.7480 -2.9974 7.6211 -0.0324 -1.5492 1.7805 -0.0000 -0.0000 0.0000 -81.4179 9.8334 28.5112 5.2180 -8.9518 -0.4087 -0.0000 0.0000 -8.3932 4.6321 -10.3785 -0.8362 -7.1250 0.0000 -0.0000 -15.7788 19.7463 9.8988 -0.0000 -0.0000 0.0000 -54.0674 30.8835 -78.4563 -12.3327 20.3018 -2.2164 0.0000 0.0000 7.6069 -28.9722 -39.4389 19.3780 7.1250 -0.0000 -0.0000 10.7720 -72.9714 -7.1678
